<svg width="1000" height="1047" viewBox="0 0 1000 1047" fill="none" xmlns="http://www.w3.org/2000/svg">
<rect width="1000" height="1000" rx="60" fill="white"/>
<path d="M160 424.8C140.4 406 130.6 385.8 130.6 364.2C130.6 347.4 136 332.8 146.8 320.4C167.2 296.4 195.8 284.4 232.6 284.4H515.2C532.8 284 548.2 282.6 561.4 280.2C574.6 277.4 583 275.2 586.6 273.6V378H580.6V370.8C580.6 352.8 575.2 338.2 564.4 327C553.6 315.8 539 310 520.6 309.6H439.6V661.8C440.4 676.2 447 687 459.4 694.2C465 697.4 471.2 699 478 699H485.8V705H303.4V699H311.2C321.6 699 330.4 695.4 337.6 688.2C345.2 681 349.2 672.4 349.6 662.4V309.6H232.6C216.2 309.6 201.8 312.6 189.4 318.6C164.2 330.6 151.6 349.4 151.6 375C151.6 390.2 156.4 405.8 166 421.8L160 424.8ZM795.545 291C785.145 291 776.145 294.8 768.545 302.4C761.345 309.6 757.545 318.4 757.145 328.8V687C757.145 715.4 749.545 740.8 734.345 763.2C719.145 785.6 700.545 801.6 678.545 811.2C656.545 820.8 634.545 825.6 612.545 825.6C607.345 825.6 602.145 825.4 596.945 825V819.6C620.945 809.6 638.545 792.2 649.745 767.4C661.345 743 667.145 715.6 667.145 685.2V328.8C666.745 314 660.345 303 647.945 295.8C641.945 292.6 635.545 291 628.745 291H620.945V285H803.345V291H795.545Z" fill="#030303"/>
</svg>
